# xmcd
#
# Track frame offsets: 
#        150
#        16150
#        45927
#        67145
#        87340
#        104975
#        123017
#        145230
#        167560
#        189520
#        211695
#        233010
#        249300
#        273050
#        287607
#        315722
#
# Disc length: 4475 seconds
#
# Revision: 2
# Processed by: cddbd v1.5.2PL0 Copyright (c) Steve Scherf et al.
# Submitted via: ExactAudioCopyFreeDBPlugin 1.0
#
DISCID=d5117910
DTITLE=Various Artist - Soul Boulevard - 80's Soul For Connoisseurs
DYEAR=1998
DGENRE=Dance
TTITLE0=Sam Butler - I Can't Get Over
TTITLE1=Evelyn "Champagne" King - Kisses Don't Lie
TTITLE2=L. J. Reynolds - Key To The World
TTITLE3=Sarah Dash - To Tell You The Truth
TTITLE4=Beau Williams - All Because Of You
TTITLE5=Sheree Brown - It's A Pleasure
TTITLE6=Joey Diggs - Your Love Keeps Workin' On Me
TTITLE7=Pieces Of A Dream - We Belong Together
TTITLE8=Najee - So Hard To Let Go
TTITLE9=Bert Robinson - You Turn Me Out
TTITLE10=R. J. 's Latest Arrival - What Becomes Of A Broken Heart (Sax
TTITLE10=Mix)
TTITLE11=Ronnie McNeir - Light My Fire
TTITLE12=Mystic Merlin - Mr. Magician
TTITLE13=Peabo Bryson - Why Don't You Make Up Your Mind
TTITLE14=T-Connection - Best Of My Love
TTITLE15=Kitty and The Haywoods - Mystic Stranger
EXTD=
EXTT0=
EXTT1=
EXTT2=
EXTT3=
EXTT4=
EXTT5=
EXTT6=
EXTT7=
EXTT8=
EXTT9=
EXTT10=
EXTT11=
EXTT12=
EXTT13=
EXTT14=
EXTT15=
PLAYORDER=
